# xmcd
#
# Track frame offsets: 
#        150
#        15920
#        44639
#        57415
#        81095
#        119432
#        139911
#        153454
#        176252
#
# Disc length: 2512 seconds
#
# Revision: 0
# Processed by: cddbd v1.5.1PL2 Copyright (c) Steve Scherf et al.
# Submitted via: ExactAudioCopy v0.95b4
#
DISCID=7109ce09
DTITLE=Alaska - 2001-10-xx - The Cove - York PA
DYEAR=2001
DGENRE=Progressive Rock
TTITLE0=Beer Drinkers And Hell Raisers
TTITLE1=Phantasmagoria
TTITLE2=White Rabbit
TTITLE3=Time
TTITLE4=Memory Bank I
TTITLE5=Walk This Way
TTITLE6=Hexed
TTITLE7=What Is And What Should Never Be
TTITLE8=Ralph's Other Ball
EXTD=
EXTT0=
EXTT1=
EXTT2=
EXTT3=
EXTT4=
EXTT5=
EXTT6=
EXTT7=
EXTT8=
PLAYORDER=
